<?xml version="1.0" encoding="utf-8" standalone="no"?>
<!DOCTYPE svg PUBLIC "-//W3C//DTD SVG 1.1//EN"
  "http://www.w3.org/Graphics/SVG/1.1/DTD/svg11.dtd">
<svg xmlns:xlink="http://www.w3.org/1999/xlink" width="388.8pt" height="266.4pt" viewBox="0 0 388.8 266.4" xmlns="http://www.w3.org/2000/svg" version="1.1">
 <metadata>
  <rdf:RDF xmlns:dc="http://purl.org/dc/elements/1.1/" xmlns:cc="http://creativecommons.org/ns#" xmlns:rdf="http://www.w3.org/1999/02/22-rdf-syntax-ns#">
   <cc:Work>
    <dc:type rdf:resource="http://purl.org/dc/dcmitype/StillImage"/>
    <dc:format>image/svg+xml</dc:format>
    <dc:creator>
     <cc:Agent>
      <dc:title>Matplotlib v3.11.0, https://matplotlib.org/</dc:title>
     </cc:Agent>
    </dc:creator>
   </cc:Work>
  </rdf:RDF>
 </metadata>
 <defs>
  <style type="text/css">*{stroke-linejoin: round; stroke-linecap: butt}</style>
 </defs>
 <g id="figure_1">
  <g id="patch_1">
   <path d="M 0 266.4 
L 388.8 266.4 
L 388.8 0 
L 0 0 
z
" style="fill: #ffffff"/>
  </g>
  <g id="axes_1">
   <g id="line2d_1">
    <path d="M 194.4 133.2 
L 74.844878 222.866341 
" clip-path="url(#pa41be7e928)" style="fill: none; stroke: #bdc8ce; stroke-linecap: square"/>
   </g>
   <g id="line2d_2">
    <path d="M 194.4 133.2 
L 74.844878 43.533659 
" clip-path="url(#pa41be7e928)" style="fill: none; stroke: #bdc8ce; stroke-linecap: square"/>
   </g>
   <g id="line2d_3">
    <path d="M 194.4 133.2 
L 313.955122 222.866341 
" clip-path="url(#pa41be7e928)" style="fill: none; stroke: #bdc8ce; stroke-linecap: square"/>
   </g>
   <g id="line2d_4">
    <path d="M 194.4 133.2 
L 313.955122 43.533659 
" clip-path="url(#pa41be7e928)" style="fill: none; stroke: #bdc8ce; stroke-linecap: square"/>
   </g>
   <g id="line2d_5">
    <path d="M 194.4 133.2 
L 44.956098 163.08878 
" clip-path="url(#pa41be7e928)" style="fill: none; stroke: #bdc8ce; stroke-linecap: square"/>
   </g>
   <g id="line2d_6">
    <path d="M 194.4 133.2 
L 44.956098 103.31122 
" clip-path="url(#pa41be7e928)" style="fill: none; stroke: #bdc8ce; stroke-linecap: square"/>
   </g>
   <g id="line2d_7">
    <path d="M 194.4 133.2 
L 343.843902 163.08878 
" clip-path="url(#pa41be7e928)" style="fill: none; stroke: #bdc8ce; stroke-linecap: square"/>
   </g>
   <g id="line2d_8">
    <path d="M 194.4 133.2 
L 343.843902 103.31122 
" clip-path="url(#pa41be7e928)" style="fill: none; stroke: #bdc8ce; stroke-linecap: square"/>
   </g>
   <g id="line2d_9">
    <path d="M 194.4 133.2 
L 115.32172 175.469119 
" clip-path="url(#pa41be7e928)" style="fill: none; stroke: #bdc8ce; stroke-linecap: square"/>
   </g>
   <g id="line2d_10">
    <path d="M 194.4 133.2 
L 115.32172 90.930881 
" clip-path="url(#pa41be7e928)" style="fill: none; stroke: #bdc8ce; stroke-linecap: square"/>
   </g>
   <g id="line2d_11">
    <path d="M 194.4 133.2 
L 273.47828 175.469119 
" clip-path="url(#pa41be7e928)" style="fill: none; stroke: #bdc8ce; stroke-linecap: square"/>
   </g>
   <g id="line2d_12">
    <path d="M 194.4 133.2 
L 273.47828 90.930881 
" clip-path="url(#pa41be7e928)" style="fill: none; stroke: #bdc8ce; stroke-linecap: square"/>
   </g>
   <g id="line2d_13">
    <path d="M 194.4 133.2 
L 313.955122 43.533659 
" clip-path="url(#pa41be7e928)" style="fill: none; stroke: #486976; stroke-width: 2; stroke-linecap: square"/>
   </g>
   <g id="PathCollection_1">
    <defs>
     <path id="mf06b0e7489" d="M 0 2.828427 
C 0.750108 2.828427 1.469594 2.530406 2 2 
C 2.530406 1.469594 2.828427 0.750108 2.828427 0 
C 2.828427 -0.750108 2.530406 -1.469594 2 -2 
C 1.469594 -2.530406 0.750108 -2.828427 0 -2.828427 
C -0.750108 -2.828427 -1.469594 -2.530406 -2 -2 
C -2.530406 -1.469594 -2.828427 -0.750108 -2.828427 0 
C -2.828427 0.750108 -2.530406 1.469594 -2 2 
C -1.469594 2.530406 -0.750108 2.828427 0 2.828427 
z
" style="stroke: #ffffff; stroke-width: 0.6"/>
    </defs>
    <g clip-path="url(#pa41be7e928)">
     <use xlink:href="#mf06b0e7489" x="74.844878" y="222.866341" style="fill: #486976; stroke: #ffffff; stroke-width: 0.6"/>
     <use xlink:href="#mf06b0e7489" x="74.844878" y="43.533659" style="fill: #486976; stroke: #ffffff; stroke-width: 0.6"/>
     <use xlink:href="#mf06b0e7489" x="313.955122" y="222.866341" style="fill: #486976; stroke: #ffffff; stroke-width: 0.6"/>
     <use xlink:href="#mf06b0e7489" x="313.955122" y="43.533659" style="fill: #486976; stroke: #ffffff; stroke-width: 0.6"/>
     <use xlink:href="#mf06b0e7489" x="44.956098" y="163.08878" style="fill: #486976; stroke: #ffffff; stroke-width: 0.6"/>
     <use xlink:href="#mf06b0e7489" x="44.956098" y="103.31122" style="fill: #486976; stroke: #ffffff; stroke-width: 0.6"/>
     <use xlink:href="#mf06b0e7489" x="343.843902" y="163.08878" style="fill: #486976; stroke: #ffffff; stroke-width: 0.6"/>
     <use xlink:href="#mf06b0e7489" x="343.843902" y="103.31122" style="fill: #486976; stroke: #ffffff; stroke-width: 0.6"/>
     <use xlink:href="#mf06b0e7489" x="115.32172" y="175.469119" style="fill: #486976; stroke: #ffffff; stroke-width: 0.6"/>
     <use xlink:href="#mf06b0e7489" x="115.32172" y="90.930881" style="fill: #486976; stroke: #ffffff; stroke-width: 0.6"/>
     <use xlink:href="#mf06b0e7489" x="273.47828" y="175.469119" style="fill: #486976; stroke: #ffffff; stroke-width: 0.6"/>
     <use xlink:href="#mf06b0e7489" x="273.47828" y="90.930881" style="fill: #486976; stroke: #ffffff; stroke-width: 0.6"/>
    </g>
   </g>
   <g id="text_1">
    <g id="patch_2">
     <path d="M 168.85 158.149951 
L 219.95 158.149951 
L 219.95 145.149951 
L 168.85 145.149951 
z
" style="fill: #ffffff"/>
    </g>
    <!-- $g$ : centre -->
    <g style="fill: #486976" transform="translate(170.35 154.247607) scale(0.1 -0.1)">
     <defs>
      <path id="DejaVuSans-Oblique-4a" d="M 3816 3500 
L 3219 434 
Q 3047 -456 2561 -893 
Q 2075 -1331 1253 -1331 
Q 950 -1331 690 -1286 
Q 431 -1241 206 -1147 
L 313 -588 
Q 525 -725 762 -790 
Q 1000 -856 1269 -856 
Q 1816 -856 2167 -557 
Q 2519 -259 2631 300 
L 2681 563 
Q 2441 288 2122 144 
Q 1803 0 1434 0 
Q 903 0 598 351 
Q 294 703 294 1319 
Q 294 1803 478 2267 
Q 663 2731 997 3091 
Q 1219 3328 1514 3456 
Q 1809 3584 2131 3584 
Q 2484 3584 2746 3420 
Q 3009 3256 3138 2956 
L 3238 3500 
L 3816 3500 
z
M 2950 2216 
Q 2950 2641 2750 2872 
Q 2550 3103 2181 3103 
Q 1953 3103 1747 3012 
Q 1541 2922 1394 2759 
Q 1156 2491 1023 2127 
Q 891 1763 891 1375 
Q 891 944 1092 712 
Q 1294 481 1672 481 
Q 2219 481 2584 976 
Q 2950 1472 2950 2216 
z
" transform="scale(0.015625)"/>
      <path id="DejaVuSans-3" transform="scale(0.015625)"/>
      <path id="DejaVuSans-1d" d="M 750 794 
L 1409 794 
L 1409 0 
L 750 0 
L 750 794 
z
M 750 3309 
L 1409 3309 
L 1409 2516 
L 750 2516 
L 750 3309 
z
" transform="scale(0.015625)"/>
      <path id="DejaVuSans-46" d="M 3122 3366 
L 3122 2828 
Q 2878 2963 2633 3030 
Q 2388 3097 2138 3097 
Q 1578 3097 1268 2742 
Q 959 2388 959 1747 
Q 959 1106 1268 751 
Q 1578 397 2138 397 
Q 2388 397 2633 464 
Q 2878 531 3122 666 
L 3122 134 
Q 2881 22 2623 -34 
Q 2366 -91 2075 -91 
Q 1284 -91 818 406 
Q 353 903 353 1747 
Q 353 2603 823 3093 
Q 1294 3584 2113 3584 
Q 2378 3584 2631 3529 
Q 2884 3475 3122 3366 
z
" transform="scale(0.015625)"/>
      <path id="DejaVuSans-48" d="M 3597 1894 
L 3597 1613 
L 953 1613 
Q 991 1019 1311 708 
Q 1631 397 2203 397 
Q 2534 397 2845 478 
Q 3156 559 3463 722 
L 3463 178 
Q 3153 47 2828 -22 
Q 2503 -91 2169 -91 
Q 1331 -91 842 396 
Q 353 884 353 1716 
Q 353 2575 817 3079 
Q 1281 3584 2069 3584 
Q 2775 3584 3186 3129 
Q 3597 2675 3597 1894 
z
M 3022 2063 
Q 3016 2534 2758 2815 
Q 2500 3097 2075 3097 
Q 1594 3097 1305 2825 
Q 1016 2553 972 2059 
L 3022 2063 
z
" transform="scale(0.015625)"/>
      <path id="DejaVuSans-51" d="M 3513 2113 
L 3513 0 
L 2938 0 
L 2938 2094 
Q 2938 2591 2744 2837 
Q 2550 3084 2163 3084 
Q 1697 3084 1428 2787 
Q 1159 2491 1159 1978 
L 1159 0 
L 581 0 
L 581 3500 
L 1159 3500 
L 1159 2956 
Q 1366 3272 1645 3428 
Q 1925 3584 2291 3584 
Q 2894 3584 3203 3211 
Q 3513 2838 3513 2113 
z
" transform="scale(0.015625)"/>
      <path id="DejaVuSans-57" d="M 1172 4494 
L 1172 3500 
L 2356 3500 
L 2356 3053 
L 1172 3053 
L 1172 1153 
Q 1172 725 1289 603 
Q 1406 481 1766 481 
L 2356 481 
L 2356 0 
L 1766 0 
Q 1100 0 847 248 
Q 594 497 594 1153 
L 594 3053 
L 172 3053 
L 172 3500 
L 594 3500 
L 594 4494 
L 1172 4494 
z
" transform="scale(0.015625)"/>
      <path id="DejaVuSans-55" d="M 2631 2963 
Q 2534 3019 2420 3045 
Q 2306 3072 2169 3072 
Q 1681 3072 1420 2755 
Q 1159 2438 1159 1844 
L 1159 0 
L 581 0 
L 581 3500 
L 1159 3500 
L 1159 2956 
Q 1341 3275 1631 3429 
Q 1922 3584 2338 3584 
Q 2397 3584 2469 3576 
Q 2541 3569 2628 3553 
L 2631 2963 
z
" transform="scale(0.015625)"/>
     </defs>
     <use xlink:href="#DejaVuSans-Oblique-4a" transform="translate(0 0.78125)"/>
     <use xlink:href="#DejaVuSans-3" transform="translate(63.476562 0.78125)"/>
     <use xlink:href="#DejaVuSans-1d" transform="translate(95.263672 0.78125)"/>
     <use xlink:href="#DejaVuSans-3" transform="translate(128.955078 0.78125)"/>
     <use xlink:href="#DejaVuSans-46" transform="translate(160.742188 0.78125)"/>
     <use xlink:href="#DejaVuSans-48" transform="translate(215.722656 0.78125)"/>
     <use xlink:href="#DejaVuSans-51" transform="translate(277.246094 0.78125)"/>
     <use xlink:href="#DejaVuSans-57" transform="translate(340.625 0.78125)"/>
     <use xlink:href="#DejaVuSans-55" transform="translate(379.833984 0.78125)"/>
     <use xlink:href="#DejaVuSans-48" transform="translate(418.947266 0.78125)"/>
    </g>
   </g>
   <g id="text_2">
    <!-- $z_i$ -->
    <g style="fill: #486976" transform="translate(322.921756 39.947005) scale(0.11 -0.11)">
     <defs>
      <path id="DejaVuSans-Oblique-5d" d="M 744 3500 
L 3475 3500 
L 3372 2975 
L 738 459 
L 2913 459 
L 2822 0 
L -19 0 
L 84 525 
L 2719 3041 
L 653 3041 
L 744 3500 
z
" transform="scale(0.015625)"/>
      <path id="DejaVuSans-Oblique-4c" d="M 1172 4863 
L 1747 4863 
L 1606 4134 
L 1031 4134 
L 1172 4863 
z
M 909 3500 
L 1484 3500 
L 800 0 
L 225 0 
L 909 3500 
z
" transform="scale(0.015625)"/>
     </defs>
     <use xlink:href="#DejaVuSans-Oblique-5d" transform="translate(0 0.3125)"/>
     <use xlink:href="#DejaVuSans-Oblique-4c" transform="translate(52.490234 -14.687451) scale(0.7)"/>
    </g>
   </g>
   <g id="text_3">
    <g id="patch_3">
     <path d="M 227.812098 92.209642 
L 240.052098 92.209642 
L 240.052098 78.286829 
L 227.812098 78.286829 
z
" style="fill: #ffffff"/>
    </g>
    <!-- $d_i$ -->
    <g style="fill: #486976" transform="translate(228.772098 88.366829) scale(0.12 -0.12)">
     <defs>
      <path id="DejaVuSans-Oblique-47" d="M 2675 525 
Q 2444 222 2128 65 
Q 1813 -91 1428 -91 
Q 903 -91 598 267 
Q 294 625 294 1247 
Q 294 1766 478 2236 
Q 663 2706 1013 3078 
Q 1244 3325 1534 3454 
Q 1825 3584 2144 3584 
Q 2481 3584 2739 3421 
Q 2997 3259 3138 2956 
L 3513 4863 
L 4091 4863 
L 3144 0 
L 2566 0 
L 2675 525 
z
M 891 1350 
Q 891 897 1095 644 
Q 1300 391 1663 391 
Q 1931 391 2161 520 
Q 2391 650 2566 903 
Q 2750 1166 2856 1509 
Q 2963 1853 2963 2188 
Q 2963 2622 2758 2865 
Q 2553 3109 2194 3109 
Q 1922 3109 1687 2981 
Q 1453 2853 1288 2613 
Q 1106 2353 998 2009 
Q 891 1666 891 1350 
z
" transform="scale(0.015625)"/>
     </defs>
     <use xlink:href="#DejaVuSans-Oblique-47" transform="translate(0 0.015625)"/>
     <use xlink:href="#DejaVuSans-Oblique-4c" transform="translate(63.476562 -14.984326) scale(0.7)"/>
    </g>
   </g>
   <g id="PathCollection_2">
    <defs>
     <path id="m30bb1744b8" d="M -5.244044 0 
L 5.244044 0 
M 0 5.244044 
L 0 -5.244044 
" style="stroke: #24313a; stroke-width: 1.8"/>
    </defs>
    <g clip-path="url(#pa41be7e928)">
     <use xlink:href="#m30bb1744b8" x="194.4" y="133.2" style="fill: #24313a; stroke: #24313a; stroke-width: 1.8"/>
    </g>
   </g>
  </g>
 </g>
 <defs>
  <clipPath id="pa41be7e928">
   <rect x="15.067317" y="10.656" width="358.665366" height="245.088"/>
  </clipPath>
 </defs>
</svg>
